<mxfile host="app.diagrams.net" modified="2023-09-08T07:05:26.334Z" agent="Mozilla/5.0 (Macintosh; Intel Mac OS X 10_15_7) AppleWebKit/537.36 (KHTML, like Gecko) Chrome/116.0.0.0 Safari/537.36" etag="Ek0vuktsY6JzRPtqGNHo" version="21.7.2" type="github">
  <diagram name="Page-1" id="baFbQU_TgkL9DF68K2cW">
    <mxGraphModel dx="2568" dy="-173" grid="1" gridSize="10" guides="1" tooltips="1" connect="1" arrows="1" fold="1" page="1" pageScale="1" pageWidth="827" pageHeight="1169" math="0" shadow="0">
      <root>
        <mxCell id="0" />
        <mxCell id="1" parent="0" />
        <mxCell id="DeZTO4YcqZ0MQOPgDxxn-1" value="" style="rounded=0;whiteSpace=wrap;html=1;fillStyle=hatch;fillColor=#FF3333;" vertex="1" parent="1">
          <mxGeometry x="-360" y="1280" width="800" height="700" as="geometry" />
        </mxCell>
        <mxCell id="DeZTO4YcqZ0MQOPgDxxn-2" value="" style="group;fillColor=#bac8d3;strokeColor=#23445d;" vertex="1" connectable="0" parent="1">
          <mxGeometry x="-40" y="1290" width="260" height="601" as="geometry" />
        </mxCell>
        <mxCell id="DeZTO4YcqZ0MQOPgDxxn-3" value="" style="group" vertex="1" connectable="0" parent="DeZTO4YcqZ0MQOPgDxxn-2">
          <mxGeometry width="250" height="601" as="geometry" />
        </mxCell>
        <mxCell id="DeZTO4YcqZ0MQOPgDxxn-4" value="" style="rounded=0;whiteSpace=wrap;html=1;fillColor=#647687;fontColor=#ffffff;strokeColor=#314354;" vertex="1" parent="DeZTO4YcqZ0MQOPgDxxn-3">
          <mxGeometry x="16" y="1" width="10" height="600" as="geometry" />
        </mxCell>
        <mxCell id="DeZTO4YcqZ0MQOPgDxxn-5" value="" style="rounded=0;whiteSpace=wrap;html=1;fillColor=#647687;strokeColor=#314354;fontColor=#ffffff;" vertex="1" parent="DeZTO4YcqZ0MQOPgDxxn-3">
          <mxGeometry x="170" width="40" height="600" as="geometry" />
        </mxCell>
        <mxCell id="DeZTO4YcqZ0MQOPgDxxn-6" value="" style="rounded=0;whiteSpace=wrap;html=1;fillColor=#647687;fontColor=#ffffff;strokeColor=#314354;" vertex="1" parent="DeZTO4YcqZ0MQOPgDxxn-3">
          <mxGeometry x="90" y="1" width="20" height="600" as="geometry" />
        </mxCell>
        <mxCell id="DeZTO4YcqZ0MQOPgDxxn-7" value="" style="rounded=0;whiteSpace=wrap;html=1;fillColor=#647687;fontColor=#ffffff;strokeColor=#314354;" vertex="1" parent="DeZTO4YcqZ0MQOPgDxxn-3">
          <mxGeometry x="120" width="40" height="600" as="geometry" />
        </mxCell>
        <mxCell id="DeZTO4YcqZ0MQOPgDxxn-8" value="" style="rounded=0;whiteSpace=wrap;html=1;fillColor=#647687;fontColor=#ffffff;strokeColor=#314354;" vertex="1" parent="DeZTO4YcqZ0MQOPgDxxn-3">
          <mxGeometry x="38" y="1" width="10" height="600" as="geometry" />
        </mxCell>
        <mxCell id="DeZTO4YcqZ0MQOPgDxxn-9" value="" style="rounded=0;whiteSpace=wrap;html=1;fillColor=#647687;fontColor=#ffffff;strokeColor=#314354;" vertex="1" parent="DeZTO4YcqZ0MQOPgDxxn-3">
          <mxGeometry x="59" width="20" height="600" as="geometry" />
        </mxCell>
        <mxCell id="DeZTO4YcqZ0MQOPgDxxn-10" value="" style="rounded=0;whiteSpace=wrap;html=1;fillColor=#647687;strokeColor=#314354;fontColor=#ffffff;" vertex="1" parent="DeZTO4YcqZ0MQOPgDxxn-2">
          <mxGeometry x="220" width="40" height="600" as="geometry" />
        </mxCell>
        <mxCell id="DeZTO4YcqZ0MQOPgDxxn-11" value="" style="rounded=0;whiteSpace=wrap;html=1;fillColor=#bac8d3;strokeColor=#23445d;" vertex="1" parent="1">
          <mxGeometry x="-480" y="1280" width="120" height="700" as="geometry" />
        </mxCell>
        <mxCell id="DeZTO4YcqZ0MQOPgDxxn-12" value="" style="rounded=0;whiteSpace=wrap;html=1;fillColor=#bac8d3;strokeColor=#23445d;" vertex="1" parent="1">
          <mxGeometry x="-600" y="1280" width="120" height="700" as="geometry" />
        </mxCell>
        <mxCell id="DeZTO4YcqZ0MQOPgDxxn-13" value="" style="group;fillColor=#330000;strokeColor=#23445d;" vertex="1" connectable="0" parent="1">
          <mxGeometry x="230" y="1280" width="210" height="610" as="geometry" />
        </mxCell>
        <mxCell id="DeZTO4YcqZ0MQOPgDxxn-14" value="" style="rounded=0;whiteSpace=wrap;html=1;fillColor=#bac8d3;strokeColor=#23445d;" vertex="1" parent="DeZTO4YcqZ0MQOPgDxxn-13">
          <mxGeometry width="126" height="130.71428571428572" as="geometry" />
        </mxCell>
        <mxCell id="DeZTO4YcqZ0MQOPgDxxn-15" value="" style="rounded=0;whiteSpace=wrap;html=1;fillColor=#bac8d3;strokeColor=#23445d;" vertex="1" parent="DeZTO4YcqZ0MQOPgDxxn-13">
          <mxGeometry x="126" width="84" height="130.71428571428572" as="geometry" />
        </mxCell>
        <mxCell id="DeZTO4YcqZ0MQOPgDxxn-16" value="" style="rounded=0;whiteSpace=wrap;html=1;fillColor=#bac8d3;strokeColor=#23445d;" vertex="1" parent="DeZTO4YcqZ0MQOPgDxxn-13">
          <mxGeometry y="130.71428571428572" width="126" height="43.57142857142857" as="geometry" />
        </mxCell>
        <mxCell id="DeZTO4YcqZ0MQOPgDxxn-17" value="" style="rounded=0;whiteSpace=wrap;html=1;fillColor=#bac8d3;strokeColor=#23445d;" vertex="1" parent="DeZTO4YcqZ0MQOPgDxxn-13">
          <mxGeometry x="126" y="130.71428571428572" width="84" height="43.57142857142857" as="geometry" />
        </mxCell>
        <mxCell id="DeZTO4YcqZ0MQOPgDxxn-18" value="" style="rounded=0;whiteSpace=wrap;html=1;fillColor=#bac8d3;strokeColor=#23445d;" vertex="1" parent="DeZTO4YcqZ0MQOPgDxxn-13">
          <mxGeometry x="84" y="174.28571428571428" width="126" height="130.71428571428572" as="geometry" />
        </mxCell>
        <mxCell id="DeZTO4YcqZ0MQOPgDxxn-19" value="" style="rounded=0;whiteSpace=wrap;html=1;fillColor=#bac8d3;strokeColor=#23445d;" vertex="1" parent="DeZTO4YcqZ0MQOPgDxxn-13">
          <mxGeometry y="174.28571428571428" width="84" height="130.71428571428572" as="geometry" />
        </mxCell>
        <mxCell id="DeZTO4YcqZ0MQOPgDxxn-20" value="" style="rounded=0;whiteSpace=wrap;html=1;fillColor=#bac8d3;strokeColor=#23445d;" vertex="1" parent="DeZTO4YcqZ0MQOPgDxxn-13">
          <mxGeometry y="305" width="84" height="130.71428571428572" as="geometry" />
        </mxCell>
        <mxCell id="DeZTO4YcqZ0MQOPgDxxn-21" value="" style="rounded=0;whiteSpace=wrap;html=1;fillColor=#bac8d3;strokeColor=#23445d;" vertex="1" parent="DeZTO4YcqZ0MQOPgDxxn-13">
          <mxGeometry x="84" y="305" width="126" height="130.71428571428572" as="geometry" />
        </mxCell>
        <mxCell id="DeZTO4YcqZ0MQOPgDxxn-22" value="" style="group;direction=west;rotation=-180;flipH=1;" vertex="1" connectable="0" parent="DeZTO4YcqZ0MQOPgDxxn-13">
          <mxGeometry y="435.7142857142857" width="210" height="174.28571428571428" as="geometry" />
        </mxCell>
        <mxCell id="DeZTO4YcqZ0MQOPgDxxn-23" value="" style="rounded=0;whiteSpace=wrap;html=1;rotation=-180;fillColor=#bac8d3;strokeColor=#23445d;" vertex="1" parent="DeZTO4YcqZ0MQOPgDxxn-22">
          <mxGeometry y="43.57142857142857" width="126" height="130.7142857142857" as="geometry" />
        </mxCell>
        <mxCell id="DeZTO4YcqZ0MQOPgDxxn-24" value="" style="rounded=0;whiteSpace=wrap;html=1;rotation=-180;fillColor=#bac8d3;strokeColor=#23445d;" vertex="1" parent="DeZTO4YcqZ0MQOPgDxxn-22">
          <mxGeometry x="126" y="43.57142857142857" width="84" height="130.7142857142857" as="geometry" />
        </mxCell>
        <mxCell id="DeZTO4YcqZ0MQOPgDxxn-25" value="" style="rounded=0;whiteSpace=wrap;html=1;rotation=-180;fillColor=#bac8d3;strokeColor=#23445d;" vertex="1" parent="DeZTO4YcqZ0MQOPgDxxn-22">
          <mxGeometry width="126" height="43.57142857142857" as="geometry" />
        </mxCell>
        <mxCell id="DeZTO4YcqZ0MQOPgDxxn-26" value="" style="rounded=0;whiteSpace=wrap;html=1;rotation=-180;fillColor=#bac8d3;strokeColor=#23445d;" vertex="1" parent="DeZTO4YcqZ0MQOPgDxxn-22">
          <mxGeometry x="126" width="84" height="43.57142857142857" as="geometry" />
        </mxCell>
        <mxCell id="DeZTO4YcqZ0MQOPgDxxn-27" value="" style="rounded=0;whiteSpace=wrap;html=1;" vertex="1" parent="1">
          <mxGeometry x="230" y="1890" width="210" height="90" as="geometry" />
        </mxCell>
        <mxCell id="DeZTO4YcqZ0MQOPgDxxn-28" value="" style="rounded=0;whiteSpace=wrap;html=1;" vertex="1" parent="1">
          <mxGeometry x="20" y="1890" width="210" height="90.5" as="geometry" />
        </mxCell>
        <mxCell id="DeZTO4YcqZ0MQOPgDxxn-29" value="" style="rounded=0;whiteSpace=wrap;html=1;" vertex="1" parent="1">
          <mxGeometry x="-190" y="1890" width="210" height="90.5" as="geometry" />
        </mxCell>
        <mxCell id="DeZTO4YcqZ0MQOPgDxxn-30" value="" style="rounded=0;whiteSpace=wrap;html=1;fillColor=#bac8d3;strokeColor=#23445d;" vertex="1" parent="1">
          <mxGeometry x="-200" y="1830" width="10" height="150.5" as="geometry" />
        </mxCell>
        <mxCell id="DeZTO4YcqZ0MQOPgDxxn-31" value="" style="rounded=0;whiteSpace=wrap;html=1;fillColor=#bac8d3;strokeColor=#23445d;" vertex="1" parent="1">
          <mxGeometry x="-190" y="1830" width="420" height="10" as="geometry" />
        </mxCell>
        <mxCell id="DeZTO4YcqZ0MQOPgDxxn-32" value="" style="rounded=0;whiteSpace=wrap;html=1;shadow=1;gradientColor=none;fillStyle=dots;fillColor=#FFFFCC;" vertex="1" parent="1">
          <mxGeometry x="-360" y="1390" width="530" height="360" as="geometry" />
        </mxCell>
        <mxCell id="DeZTO4YcqZ0MQOPgDxxn-33" value="" style="rounded=0;whiteSpace=wrap;html=1;fillColor=#bac8d3;strokeColor=#23445d;" vertex="1" parent="1">
          <mxGeometry x="-270" y="1280" width="500" height="10" as="geometry" />
        </mxCell>
        <mxCell id="DeZTO4YcqZ0MQOPgDxxn-34" value="" style="rounded=0;whiteSpace=wrap;html=1;fillColor=#f5f5f5;gradientColor=#b3b3b3;strokeColor=#666666;" vertex="1" parent="1">
          <mxGeometry x="-340" y="1420" width="480" height="300" as="geometry" />
        </mxCell>
        <mxCell id="DeZTO4YcqZ0MQOPgDxxn-35" value="" style="rounded=0;whiteSpace=wrap;html=1;fillColor=#bac8d3;strokeColor=#23445d;" vertex="1" parent="1">
          <mxGeometry x="-190" y="1970" width="630" height="10" as="geometry" />
        </mxCell>
        <mxCell id="DeZTO4YcqZ0MQOPgDxxn-36" value="" style="rounded=0;whiteSpace=wrap;html=1;" vertex="1" parent="1">
          <mxGeometry x="-122.5" y="1890" width="75" height="10" as="geometry" />
        </mxCell>
        <mxCell id="DeZTO4YcqZ0MQOPgDxxn-37" value="" style="rounded=0;whiteSpace=wrap;html=1;" vertex="1" parent="1">
          <mxGeometry x="87.5" y="1891" width="75" height="10" as="geometry" />
        </mxCell>
        <mxCell id="DeZTO4YcqZ0MQOPgDxxn-38" value="" style="rounded=0;whiteSpace=wrap;html=1;" vertex="1" parent="1">
          <mxGeometry x="297.5" y="1891" width="75" height="10" as="geometry" />
        </mxCell>
        <mxCell id="DeZTO4YcqZ0MQOPgDxxn-39" value="" style="rounded=0;whiteSpace=wrap;html=1;fillStyle=hatch;fillColor=#FF9999;" vertex="1" parent="1">
          <mxGeometry x="610" y="1340" width="120" height="60" as="geometry" />
        </mxCell>
        <mxCell id="DeZTO4YcqZ0MQOPgDxxn-40" value="" style="rounded=0;whiteSpace=wrap;html=1;gradientColor=none;fillColor=#CCCC00;fillStyle=dots;" vertex="1" parent="1">
          <mxGeometry x="610" y="1420" width="120" height="60" as="geometry" />
        </mxCell>
        <mxCell id="DeZTO4YcqZ0MQOPgDxxn-41" value="" style="rounded=0;whiteSpace=wrap;html=1;fillColor=#bac8d3;strokeColor=#23445d;" vertex="1" parent="1">
          <mxGeometry x="610" y="1500" width="120" height="60" as="geometry" />
        </mxCell>
        <mxCell id="DeZTO4YcqZ0MQOPgDxxn-42" value="" style="rounded=0;whiteSpace=wrap;html=1;" vertex="1" parent="1">
          <mxGeometry x="610" y="1585" width="120" height="60" as="geometry" />
        </mxCell>
        <mxCell id="DeZTO4YcqZ0MQOPgDxxn-43" value="" style="rounded=0;whiteSpace=wrap;html=1;" vertex="1" parent="1">
          <mxGeometry x="-500" y="1600" width="10" height="60" as="geometry" />
        </mxCell>
        <mxCell id="DeZTO4YcqZ0MQOPgDxxn-44" value="" style="rounded=0;whiteSpace=wrap;html=1;" vertex="1" parent="1">
          <mxGeometry x="-470" y="1600" width="10" height="60" as="geometry" />
        </mxCell>
      </root>
    </mxGraphModel>
  </diagram>
</mxfile>
